HIERARCHY
ROOT Hips
{
	OFFSET 0.00000 0.00000 0.00000
	CHANNELS 6 Xposition Yposition Zposition Zrotation Yrotation Xrotation 
	JOINT LHipJoint
	{
		OFFSET 0 0 0
		CHANNELS 3 Zrotation Yrotation Xrotation
		JOINT LeftHip
		{
			OFFSET 1.59801 -1.77853 0.57028
			CHANNELS 3 Zrotation Yrotation Xrotation
			JOINT LeftKnee
			{
				OFFSET 2.39439 -6.57854 0.00000
				CHANNELS 3 Zrotation Yrotation Xrotation
				JOINT LeftAnkle
				{
					OFFSET 2.69334 -7.39989 0.00000
					CHANNELS 3 Zrotation Yrotation Xrotation
					JOINT LeftToe
					{
						OFFSET 0.09553 -0.26245 1.73747
						CHANNELS 3 Zrotation Yrotation Xrotation
						End Site
						{
							OFFSET 0.00000 -0.00000 0.89391
						}
					}
				}
			}
		}
	}
	JOINT RHipJoint
	{
		OFFSET 0 0 0
		CHANNELS 3 Zrotation Yrotation Xrotation
		JOINT RightHip
		{
			OFFSET -1.54704 -1.77852 0.57028
			CHANNELS 3 Zrotation Yrotation Xrotation
			JOINT RightKnee
			{
				OFFSET -2.40286 -6.60180 0.00000
				CHANNELS 3 Zrotation Yrotation Xrotation
				JOINT RightAnkle
				{
					OFFSET -2.63873 -7.24984 0.00000
					CHANNELS 3 Zrotation Yrotation Xrotation
					JOINT RightToe
					{
						OFFSET -0.15631 -0.42945 1.84436
						CHANNELS 3 Zrotation Yrotation Xrotation
						End Site
						{
							OFFSET -0.00000 -0.00000 0.95734
						}
					}
				}
			}
		}
	}
	JOINT lowerback
	{
		OFFSET 0 0 0
		CHANNELS 3 Zrotation Yrotation Xrotation
		JOINT Chest
		{
			OFFSET -0.00436 1.89866 -0.04018
			CHANNELS 3 Zrotation Yrotation Xrotation
			JOINT Chest2
			{
				OFFSET 0.02031 1.88273 0.09634
				CHANNELS 3 Zrotation Yrotation Xrotation
				JOINT lowerneck
				{
					OFFSET 0 0 0
					CHANNELS 3 Zrotation Yrotation Xrotation
					JOINT Neck
					{
						OFFSET -0.13105 1.89371 0.23083
						CHANNELS 3 Zrotation Yrotation Xrotation
						JOINT Head
						{
							OFFSET 0.17062 1.83990 -0.54062
							CHANNELS 3 Zrotation Yrotation Xrotation
							End Site
							{
								OFFSET 0.04576 1.94782 -0.21839
							}
						}
					}
				}
				JOINT LeftCollar
				{
					OFFSET 0 0 0
					CHANNELS 3 Zrotation Yrotation Xrotation
					JOINT LeftShoulder
					{
						OFFSET 3.12424 1.09204 0.22226
CHANNELS 3 Zrotation Xrotation Yrotation
						JOINT LeftElbow
						{
OFFSET 0 -5.292770 0.000000
CHANNELS 3 Zrotation Xrotation Yrotation
							JOINT LeftWrist
							{
OFFSET 0 -2.852260 0.000000
CHANNELS 3 Zrotation Xrotation Yrotation
								JOINT lhand
								{
									OFFSET 0 0 0
CHANNELS 3 Zrotation Xrotation Yrotation
									JOINT LFingers
									{
OFFSET 0 -0.602100 0.000000
CHANNELS 3 Zrotation Xrotation Yrotation
										End Site
										{
OFFSET 0 -0.485430 0.000000
										}
									}
								}
								JOINT LThumb
								{
OFFSET 0 0.000000 0.000000
CHANNELS 3 Zrotation Xrotation Yrotation
									End Site
									{
OFFSET 0 -0.492840 0.492840
									}
								}
							}
						}
					}
				}
				JOINT RightCollar
				{
					OFFSET 0 0 0
					CHANNELS 3 Zrotation Yrotation Xrotation
					JOINT RightShoulder
					{
						OFFSET -2.91709 1.01504 0.30199
CHANNELS 3 Zrotation Xrotation Yrotation
						JOINT RightElbow
						{
OFFSET 0 -5.133040 0.000000
CHANNELS 3 Zrotation Xrotation Yrotation
							JOINT RightWrist
							{
OFFSET 0 -2.743050 0.000000
CHANNELS 3 Zrotation Xrotation Yrotation
								JOINT rhand
								{
									OFFSET 0 0 0
CHANNELS 3 Zrotation Xrotation Yrotation
									JOINT RFingers
									{
OFFSET 0 -0.767980 0.000000
CHANNELS 3 Zrotation Xrotation Yrotation
										End Site
										{
OFFSET 0 -0.619160 0.000000
										}
									}
								}
								JOINT RThumb
								{
OFFSET 0 0.000000 0.000000
CHANNELS 3 Zrotation Xrotation Yrotation
									End Site
									{
OFFSET 0 -0.628620 0.628620
									}
								}
							}
						}
					}
				}
			}
		}
	}
}
MOTION
Frames: 5
Frame Time: 0.008333333333333333
0.166900 17.374500 0.508000 -1.463900 -4.379500 5.953200 0.000000 0.000000 0.000000 -16.947300 -14.680000 -4.609800 1.208200 6.973300 19.636400 0.772200 6.503300 -20.206200 0.619400 -5.036700 -14.013300 0.000000 0.000000 0.000000 19.524800 17.955800 0.809900 -0.401600 -4.068800 11.270200 -0.131800 -8.596300 -14.493100 -0.684300 5.289000 -14.734600 -0.927200 0.167600 0.083100 2.411300 0.254800 -2.037500 2.993500 0.167900 -2.152500 -19.713500 -12.916700 -4.737100 34.197800 -19.093000 1.532800 12.870700 -8.937700 7.170600 -0.000000 0.000000 0.000000 -0.499900 7.685200 -16.327800 5.823500 -9.967500 0.508300 9.897700 7.082400 -20.584200 0.000000 0.000000 0.000000 -7.125000 0.000000 0.000000 -18.396400 49.930900 2.305200 -0.000000 0.000000 0.000000 -1.547100 3.264100 19.035800 -13.467600 -21.968500 -2.625600 0.918400 24.760400 -13.115500 0.000000 0.000000 0.000000 7.125000 0.000000 -0.000000 19.255100 17.261100 13.460700
0.136399 17.286324 0.383291 -2.547831 -2.273715 6.185864 0.000000 0.000000 0.000000 -14.622353 -13.593432 -9.958217 2.009403 8.885628 25.438197 0.972304 2.109564 -19.501245 0.912685 -6.083445 -17.027814 0.000000 0.000000 0.000000 20.715884 16.737788 -2.757459 -0.781318 -5.643165 15.752513 -0.350054 -7.541100 -16.399011 -0.738927 5.491396 -15.315576 0.459285 -0.157022 0.467403 2.545544 -0.165364 -1.441189 2.357691 -0.070260 -1.733304 -19.741111 -12.585663 -4.938528 32.450432 -19.078760 4.600411 12.273337 -8.794116 7.847784 0.000000 0.000000 0.000000 3.471710 5.745218 -16.607236 7.395101 -12.567569 0.815474 13.952352 30.844791 -18.899578 0.000000 0.000000 0.000000 -7.125000 0.000000 0.000000 -13.910627 48.902781 1.363431 0.000000 0.000000 0.000000 -5.863921 1.580394 16.001603 -17.239269 -27.171732 -4.196185 -14.461423 12.026784 -8.308956 0.000000 0.000000 0.000000 7.125000 0.000000 0.000000 8.962426 21.443048 5.127946
0.151026 17.321468 0.311731 -2.293172 -1.550589 6.881223 0.000000 0.000000 0.000000 -14.736373 -14.943465 -10.251595 1.875830 8.602397 24.559348 0.856943 3.001172 -18.819091 1.023911 -6.436013 -18.055263 0.000000 0.000000 0.000000 20.164062 16.535296 -3.289428 -0.681028 -5.275888 14.697136 -0.251429 -8.123864 -15.687828 -0.710477 5.386740 -15.015016 0.029839 0.321434 0.657971 2.353259 0.468551 -1.472631 2.387684 0.252580 -1.898237 -19.258485 -12.056073 -4.640283 31.563709 -18.775648 6.870997 12.019686 -8.576909 8.210675 0.000000 0.000000 0.000000 2.247975 0.612248 -14.111855 9.144859 -15.390793 1.238530 10.237711 17.204446 -17.881225 0.000000 0.000000 0.000000 -7.125000 0.000000 0.000000 -16.978354 47.388001 1.028802 0.000000 0.000000 0.000000 -9.292449 -1.469112 12.069365 -12.961478 -21.230520 -2.439508 -22.358632 19.560220 -5.738662 0.000000 0.000000 0.000000 7.125000 0.000000 0.000000 3.225885 23.779872 1.654127
0.121971 17.464517 0.412764 -1.222153 -0.285703 7.555696 0.000000 0.000000 0.000000 -16.245237 -18.467901 -4.623704 0.867451 5.938237 16.605331 0.459237 7.431979 -17.629764 0.823630 -5.790291 -16.177259 0.000000 0.000000 0.000000 19.298520 13.232513 2.178367 -0.037395 -1.241864 3.414665 0.110346 -9.259593 -10.990907 -0.572540 4.845620 -13.468914 0.047443 0.752410 -1.224448 1.150121 1.013589 -1.772135 1.152848 0.514569 -1.148102 -20.525794 -11.765339 -3.439789 30.071774 -18.887879 9.886287 11.846857 -8.704291 8.878431 0.000000 0.000000 0.000000 0.795887 -2.586574 -19.018735 11.772108 -19.462031 2.025705 12.449194 7.494129 -15.709075 0.000000 0.000000 0.000000 -7.125000 0.000000 0.000000 -14.219938 45.553775 0.198504 0.000000 0.000000 0.000000 -6.836781 2.715822 14.807845 -13.493143 -22.005390 -2.635232 -15.490097 20.639904 -6.684679 0.000000 0.000000 0.000000 7.125000 0.000000 0.000000 8.276940 23.062927 4.417754
0.099882 17.504637 0.460117 -1.654351 1.937827 8.520576 0.000000 0.000000 0.000000 -16.042454 -22.759902 -1.813545 0.559594 4.791646 13.315324 0.236543 10.401213 -18.034681 0.897778 -6.038132 -16.895328 0.000000 0.000000 0.000000 19.637320 10.770082 2.639854 0.000000 0.000000 0.000000 0.142504 -9.053719 -9.820178 -0.547433 4.739972 -13.168361 1.849317 0.262010 -2.078626 0.805274 0.332082 -2.063529 -0.207502 0.149424 -0.943131 -20.833968 -11.273218 -4.719953 25.375071 -17.351938 11.729687 10.263390 -8.014680 8.678040 0.000000 0.000000 0.000000 -0.919255 -5.009069 -23.406549 9.873237 -16.540858 1.438798 9.699044 10.397366 -16.854971 0.000000 0.000000 0.000000 -7.125000 0.000000 0.000000 -17.090683 46.328969 0.576504 0.000000 0.000000 0.000000 -3.812794 6.259926 31.130375 -14.434256 -23.352044 -2.998073 -15.674601 16.842209 -7.674799 0.000000 0.000000 0.000000 7.125000 0.000000 0.000000 8.106880 22.039543 4.516636
